<?xml version="1.0" standalone="no"?>
<!DOCTYPE svg PUBLIC "-//W3C//DTD SVG 20010904//EN"
 "http://www.w3.org/TR/2001/REC-SVG-20010904/DTD/svg10.dtd">
<svg version="1.0" xmlns="http://www.w3.org/2000/svg"
 width="707.000000pt" height="353.000000pt" viewBox="0 0 707.000000 353.000000"
 preserveAspectRatio="xMidYMid meet">

<g transform="translate(0.000000,353.000000) scale(0.100000,-0.100000)"
fill="#2563eb" stroke="none">
<path d="M1438 2416 c-30 -16 -36 -20 -94 -70 -23 -20 -45 -36 -48 -36 -9 0
-157 -118 -173 -139 -10 -11 -13 -101 -13 -371 l0 -356 38 -32 c20 -17 62 -49
92 -71 63 -46 119 -87 158 -117 54 -41 89 -57 114 -51 30 8 136 110 149 144 5
13 9 96 9 184 l0 159 42 27 c22 16 51 35 63 43 12 8 35 24 51 34 16 10 52 34
81 53 90 60 88 68 91 -239 l2 -266 66 -71 c67 -72 86 -81 127 -59 18 9 112 77
152 111 6 4 33 25 60 45 28 20 67 51 88 67 l37 30 0 367 0 367 -41 38 c-22 21
-49 43 -58 48 -10 6 -24 16 -32 23 -58 51 -178 141 -197 147 -23 7 -54 -15
-164 -118 l-38 -35 0 -99 0 -99 -77 -51 c-43 -28 -98 -63 -122 -79 -82 -55
-103 -64 -123 -53 -16 9 -18 25 -18 197 l0 188 -47 45 c-116 108 -132 117
-175 95z m50 -198 c9 -9 12 -116 12 -420 0 -342 -2 -410 -14 -414 -8 -3 -36
11 -63 30 -26 20 -69 51 -95 68 l-47 33 -3 265 c-2 146 -2 276 0 290 2 18 18
36 50 58 26 18 67 48 92 67 52 39 52 39 68 23z m794 -56 l83 -68 3 -286 2
-287 -26 -18 c-15 -10 -36 -27 -48 -39 -30 -29 -115 -88 -120 -83 -8 8 -11
824 -3 837 5 6 12 12 17 12 5 0 46 -31 92 -68z"/>
<path d="M5645 2171 c-109 -30 -192 -96 -240 -191 -26 -50 -29 -65 -28 -155 0
-99 5 -121 47 -193 26 -45 79 -90 141 -122 62 -31 67 -32 167 -28 98 3 106 5
158 39 88 57 90 62 39 109 -24 22 -46 40 -51 40 -4 0 -28 -14 -53 -31 -43 -29
-51 -31 -113 -27 -52 3 -76 10 -107 32 -111 77 -120 253 -18 347 69 64 195 65
263 3 l25 -22 50 43 50 44 -36 35 c-63 62 -210 100 -294 77z"/>
<path d="M2890 1825 l0 -344 68 2 67 2 5 215 5 215 20 -30 c21 -33 57 -81 78
-105 8 -8 33 -41 56 -72 37 -51 46 -58 76 -58 28 0 40 7 62 36 15 21 43 54 61
74 17 21 32 41 32 45 0 4 14 24 30 44 17 20 36 43 43 51 9 11 13 -31 15 -203
l2 -218 68 3 67 3 3 343 2 342 -58 0 c-61 0 -79 -11 -125 -80 -9 -14 -38 -53
-64 -87 -27 -35 -57 -75 -68 -89 -11 -15 -27 -38 -35 -52 -23 -38 -36 -37 -62
1 -22 33 -165 225 -208 280 -19 24 -28 27 -81 27 l-59 0 0 -345z"/>
<path d="M3840 2105 l0 -65 115 0 115 0 2 -277 3 -278 70 0 70 0 3 278 2 277
115 0 115 0 0 65 0 65 -305 0 -305 0 0 -65z"/>
<path d="M4650 1825 l0 -346 268 3 267 3 3 63 3 62 -201 0 -200 0 0 80 0 80
165 0 165 0 0 60 0 60 -165 0 -165 0 0 75 0 75 200 0 200 0 0 65 0 65 -270 0
-270 0 0 -345z"/>
</g>
</svg>
