<?xml version="1.0" standalone="no"?>
<!DOCTYPE svg PUBLIC "-//W3C//DTD SVG 20010904//EN"
 "http://www.w3.org/TR/2001/REC-SVG-20010904/DTD/svg10.dtd">
<svg version="1.0" xmlns="http://www.w3.org/2000/svg"
 width="217.000000pt" height="130.000000pt" viewBox="0 0 217.000000 130.000000"
 preserveAspectRatio="xMidYMid meet">

<g transform="translate(0.000000,130.000000) scale(0.100000,-0.100000)"
fill="#2563eb" stroke="none">
<path d="M738 1276 c-30 -16 -36 -20 -94 -70 -23 -20 -45 -36 -48 -36 -9 0
-157 -118 -173 -139 -10 -11 -13 -101 -13 -371 l0 -356 38 -32 c20 -17 80 -62
132 -101 52 -38 106 -78 120 -88 52 -40 87 -56 112 -50 30 8 136 110 149 144
5 13 9 96 9 184 l0 159 42 27 c22 16 51 35 63 43 12 8 35 24 51 34 16 10 52
34 81 53 90 60 88 68 91 -239 l2 -266 66 -71 c49 -52 73 -71 92 -71 21 0 115
62 187 123 6 4 33 25 60 45 28 20 67 51 88 67 l37 30 0 367 0 367 -41 38 c-22
21 -48 43 -58 48 -9 6 -25 18 -36 27 -67 58 -173 136 -193 143 -23 7 -53 -15
-164 -118 l-38 -35 0 -99 0 -99 -77 -51 c-43 -28 -98 -63 -122 -79 -82 -55
-103 -64 -123 -53 -16 9 -18 25 -18 197 l0 188 -47 45 c-116 108 -132 117
-175 95z m50 -198 c9 -9 12 -116 12 -420 0 -342 -2 -410 -14 -414 -8 -3 -36
11 -63 30 -26 20 -69 51 -95 68 l-47 33 -3 265 c-2 146 -2 276 0 290 2 18 18
36 50 58 26 18 67 48 92 67 52 39 52 39 68 23z m794 -56 l83 -68 3 -286 2
-287 -26 -18 c-15 -10 -36 -27 -48 -39 -30 -29 -115 -88 -120 -83 -8 8 -10
824 -3 837 5 6 12 12 17 12 5 0 46 -31 92 -68z"/>
</g>
</svg>
